# xmcd
# 
# Track frame offsets:
#     150
#     13688
#     35981
#     66011
# 
# Disc length: 1085
# 
# Revision: 1
# Processed by: cddbd v1.5.2PL0 Copyright (c) Steve Scherf et al.
# Submitted via: fre:ac v1.1beta1pre2
# 
DISCID=31043b04
DTITLE=Cam Tyler - Cam Tyler Feels like Heaven CDM
DYEAR=2007
DGENRE=Electronic
TTITLE0=Feels like Heaven (Radio Edit)
TTITLE1=Feels like Heaven (Extended)
TTITLE2=Feels like Heaven (Silverrooms Remix)
TTITLE3=Feels like Heaven (Candlelight Version)
EXTD=
EXTT0=
EXTT1=
EXTT2=
EXTT3=
PLAYORDER=
